# ProBuilder 4.5.2
# https://unity3d.com/unity/features/worldbuilding/probuilder
# 26.10.2022 20:36:37

mtllib ./Arch.mtl
o Arch

g Arch
v -0.4926851 -0.933381 -0.4
v -0.4921763 -0.881548 -0.4
v -0.4926851 -0.933381 0.4
v -0.4921763 -0.881548 0.4
v -0.1922341 -0.8874381 -0.4
v -0.1926852 -0.933381 -0.4
v -0.1922341 -0.8874381 0.4
v -0.1926852 -0.933381 0.4
v -0.4906497 -0.829735 -0.4
v -0.4906497 -0.829735 0.4
v -0.1908811 -0.841513 -0.4
v -0.1908811 -0.841513 0.4
v -0.4881063 -0.777962 -0.4
v -0.4881063 -0.777962 0.4
v -0.1886268 -0.7956233 -0.4
v -0.1886268 -0.7956233 0.4
v -0.4845467 -0.7262489 -0.4
v -0.4845467 -0.7262489 0.4
v -0.1854716 -0.7497867 -0.4
v -0.1854716 -0.7497867 0.4
v -0.4799729 -0.6746157 -0.4
v -0.4799729 -0.6746157 0.4
v -0.1814175 -0.7040209 -0.4
v -0.1814175 -0.7040209 0.4
v -0.4743858 -0.6230822 -0.4
v -0.4743858 -0.6230822 0.4
v -0.1764653 -0.6583434 -0.4
v -0.1764653 -0.6583434 0.4
v -0.4677882 -0.5716684 -0.4
v -0.4677882 -0.5716684 0.4
v -0.1706174 -0.6127721 -0.4
v -0.1706174 -0.6127721 0.4
v -0.4601825 -0.520394 -0.4
v -0.4601825 -0.520394 0.4
v -0.1638759 -0.5673243 -0.4
v -0.1638759 -0.5673243 0.4
v -0.4515713 -0.4692788 -0.4
v -0.4515713 -0.4692788 0.4
v -0.1562434 -0.5220177 -0.4
v -0.1562434 -0.5220177 0.4
v -0.4419582 -0.4183424 -0.4
v -0.4419582 -0.4183424 0.4
v -0.1477228 -0.4768696 -0.4
v -0.1477228 -0.4768696 0.4
v -0.4313469 -0.3676048 -0.4
v -0.4313469 -0.3676048 0.4
v -0.1383174 -0.4318975 -0.4
v -0.1383174 -0.4318975 0.4
v -0.4197417 -0.3170852 -0.4
v -0.4197417 -0.3170852 0.4
v -0.1280308 -0.3871187 -0.4
v -0.1280308 -0.3871187 0.4
v -0.4071467 -0.2668032 -0.4
v -0.4071467 -0.2668032 0.4
v -0.1168671 -0.3425506 -0.4
v -0.1168671 -0.3425506 0.4
v -0.3935669 -0.2167781 -0.4
v -0.3935669 -0.2167781 0.4
v -0.1048303 -0.2982102 -0.4
v -0.1048303 -0.2982102 0.4
v -0.3790076 -0.1670294 -0.4
v -0.3790076 -0.1670294 0.4
v -0.09192566 -0.2541148 -0.4
v -0.09192566 -0.2541148 0.4
v -0.3634744 -0.117576 -0.4
v -0.3634744 -0.117576 0.4
v -0.07815746 -0.2102811 -0.4
v -0.07815746 -0.2102811 0.4
v -0.346973 -0.06843725 -0.4
v -0.346973 -0.06843725 0.4
v -0.0635312 -0.1667263 -0.4
v -0.0635312 -0.1667263 0.4
v -0.3295102 -0.0196319 -0.4
v -0.3295102 -0.0196319 0.4
v -0.04805283 -0.123467 -0.4
v -0.04805283 -0.123467 0.4
v -0.3110924 0.02882126 -0.4
v -0.3110924 0.02882126 0.4
v -0.03172807 -0.08051988 -0.4
v -0.03172807 -0.08051988 0.4
v -0.2917271 0.07690337 -0.4
v -0.2917271 0.07690337 0.4
v -0.01456312 -0.03790161 -0.4
v -0.01456312 -0.03790161 0.4
v -0.2714212 0.124596 -0.4
v -0.2714212 0.124596 0.4
v 0.003435096 0.004371372 -0.4
v 0.003435096 0.004371372 0.4
v -0.2501831 0.1718809 -0.4
v -0.2501831 0.1718809 0.4
v 0.02225991 0.04628292 -0.4
v 0.02225991 0.04628292 0.4
v -0.2280205 0.2187395 -0.4
v -0.2280205 0.2187395 0.4
v 0.04190393 0.08781675 -0.4
v 0.04190393 0.08781675 0.4
v -0.2049423 0.265154 -0.4
v -0.2049423 0.265154 0.4
v 0.06235953 0.1289568 -0.4
v 0.06235953 0.1289568 0.4
v -0.1809574 0.3111065 -0.4
v -0.1809574 0.3111065 0.4
v 0.08361908 0.1696874 -0.4
v 0.08361908 0.1696874 0.4
v -0.1560746 0.3565791 -0.4
v -0.1560746 0.3565791 0.4
v 0.1056742 0.2099928 -0.4
v 0.1056742 0.2099928 0.4
v -0.1303039 0.4015546 -0.4
v -0.1303039 0.4015546 0.4
v 0.1285164 0.2498575 -0.4
v 0.1285164 0.2498575 0.4
v -0.1036551 0.4460153 -0.4
v -0.1036551 0.4460153 0.4
v 0.1521369 0.2892658 -0.4
v 0.1521369 0.2892658 0.4
v -0.07613877 0.4899442 -0.4
v -0.07613877 0.4899442 0.4
v 0.1765265 0.3282028 -0.4
v 0.1765265 0.3282028 0.4
v -0.04776482 0.5333246 -0.4
v -0.04776482 0.5333246 0.4
v 0.201676 0.3666535 -0.4
v 0.201676 0.3666535 0.4
v -0.01854495 0.5761393 -0.4
v -0.01854495 0.5761393 0.4
v 0.2275755 0.4046029 -0.4
v 0.2275755 0.4046029 0.4
v 0.01151009 0.6183722 -0.4
v 0.01151009 0.6183722 0.4
v 0.2542151 0.4420367 -0.4
v 0.2542151 0.4420367 0.4
v 0.0423884 0.6600068 -0.4
v 0.0423884 0.6600068 0.4
v 0.2815845 0.47894 -0.4
v 0.2815845 0.47894 0.4
v 0.07407828 0.7010272 -0.4
v 0.07407828 0.7010272 0.4
v 0.3096733 0.515299 -0.4
v 0.3096733 0.515299 0.4
v 0.1065671 0.7414174 -0.4
v 0.1065671 0.7414174 0.4
v 0.3384703 0.5510994 -0.4
v 0.3384703 0.5510994 0.4
v 0.1398432 0.7811619 -0.4
v 0.1398432 0.7811619 0.4
v 0.367965 0.5863276 -0.4
v 0.367965 0.5863276 0.4
v 0.1738928 0.8202456 -0.4
v 0.1738928 0.8202456 0.4
v 0.3981454 0.6209699 -0.4
v 0.3981454 0.6209699 0.4
v 0.2087036 0.8586531 -0.4
v 0.2087036 0.8586531 0.4
v 0.4290002 0.655013 -0.4
v 0.4290002 0.655013 0.4
v 0.2442615 0.8963698 -0.4
v 0.2442615 0.8963698 0.4
v 0.4605175 0.6884437 -0.4
v 0.4605175 0.6884437 0.4
v 0.2805531 0.933381 -0.4
v 0.2805531 0.933381 0.4
v 0.492685 0.721249 -0.4
v 0.492685 0.721249 0.4

vt -0.4 -0.9381719
vt -0.4 -0.8863364
vt 0.4 -0.9381719
vt 0.4 -0.8863364
vt 0.4 -0.8892827
vt 0.4 -0.9352278
vt -0.4 -0.8892827
vt -0.4 -0.9352278
vt -0.4926851 0.4
vt -0.1926852 0.4
vt -0.4926851 -0.4
vt -0.1926852 -0.4
vt -0.4 -0.8956606
vt -0.4 -0.8438252
vt 0.4 -0.8956606
vt 0.4 -0.8438252
vt 0.4 -0.8467692
vt 0.4 -0.8927143
vt -0.4 -0.8467692
vt -0.4 -0.8927143
vt -0.4 -0.8528107
vt -0.4 -0.8009752
vt 0.4 -0.8528107
vt 0.4 -0.8009752
vt 0.4 -0.8039199
vt 0.4 -0.8498649
vt -0.4 -0.8039199
vt -0.4 -0.8498649
vt -0.4 -0.8096443
vt -0.4 -0.7578088
vt 0.4 -0.8096443
vt 0.4 -0.7578088
vt 0.4 -0.7607536
vt 0.4 -0.8066987
vt -0.4 -0.7607536
vt -0.4 -0.8066987
vt -0.4 -0.7661713
vt -0.4 -0.714336
vt 0.4 -0.7661713
vt 0.4 -0.714336
vt 0.4 -0.7172826
vt 0.4 -0.7632276
vt -0.4 -0.7172826
vt -0.4 -0.7632276
vt -0.4 -0.7224196
vt -0.4 -0.6705841
vt 0.4 -0.7224196
vt 0.4 -0.6705841
vt 0.4 -0.6735284
vt 0.4 -0.7194735
vt -0.4 -0.6735284
vt -0.4 -0.7194735
vt -0.4 -0.6783937
vt -0.4 -0.6265583
vt 0.4 -0.6783937
vt 0.4 -0.6265583
vt 0.4 -0.6295046
vt 0.4 -0.6754496
vt -0.4 -0.6295046
vt -0.4 -0.6754496
vt -0.4 -0.6341194
vt -0.4 -0.5822839
vt 0.4 -0.6341194
vt 0.4 -0.5822839
vt 0.4 -0.5852294
vt 0.4 -0.6311745
vt -0.4 -0.5852294
vt -0.4 -0.6311745
vt -0.4 -0.589611
vt -0.4 -0.5377755
vt 0.4 -0.589611
vt 0.4 -0.5377755
vt 0.4 -0.5407198
vt 0.4 -0.5866649
vt -0.4 -0.5407198
vt -0.4 -0.5866649
vt -0.4 -0.5448834
vt -0.4 -0.4930479
vt 0.4 -0.5448834
vt 0.4 -0.4930479
vt 0.4 -0.4959929
vt 0.4 -0.541938
vt -0.4 -0.4959929
vt -0.4 -0.541938
vt -0.4 -0.4999568
vt -0.4 -0.4481213
vt 0.4 -0.4999568
vt 0.4 -0.4481213
vt 0.4 -0.451066
vt 0.4 -0.497011
vt -0.4 -0.451066
vt -0.4 -0.497011
vt -0.4 -0.454846
vt -0.4 -0.4030106
vt 0.4 -0.454846
vt 0.4 -0.4030106
vt 0.4 -0.4059562
vt 0.4 -0.4519013
vt -0.4 -0.4059562
vt -0.4 -0.4519013
vt -0.4 -0.4095711
vt -0.4 -0.3577357
vt 0.4 -0.4095711
vt 0.4 -0.3577357
vt 0.4 -0.3606812
vt 0.4 -0.4066262
vt -0.4 -0.3606812
vt -0.4 -0.4066262
vt -0.4 -0.3641488
vt -0.4 -0.3123133
vt 0.4 -0.3641488
vt 0.4 -0.3123133
vt 0.4 -0.3152582
vt 0.4 -0.3612033
vt -0.4 -0.3152582
vt -0.4 -0.3612033
vt -0.4 -0.3185947
vt -0.4 -0.2667593
vt 0.4 -0.3185947
vt 0.4 -0.2667593
vt 0.4 -0.2697048
vt 0.4 -0.3156497
vt -0.4 -0.2697048
vt -0.4 -0.3156497
vt -0.4 -0.2729284
vt -0.4 -0.2210929
vt 0.4 -0.2729284
vt 0.4 -0.2210929
vt 0.4 -0.2240386
vt -0.4 -0.2240386
vt -0.4 -0.2271685
vt -0.4 -0.175333
vt 0.4 -0.2271685
vt 0.4 -0.175333
vt 0.4 -0.1782772
vt -0.4 -0.1782772
vt -0.4 -0.1813278
vt -0.4 -0.1294924
vt 0.4 -0.1813278
vt 0.4 -0.1294924
vt 0.4 -0.1324381
vt -0.4 -0.1324381
vt -0.4 -0.1354301
vt -0.4 -0.08359452
vt 0.4 -0.1354301
vt 0.4 -0.08359452
vt 0.4 -0.08653915
vt -0.4 -0.08653915
vt -0.4 -0.08948744
vt -0.4 -0.03765207
vt 0.4 -0.08948744
vt 0.4 -0.03765207
vt 0.4 -0.04059793
vt -0.4 -0.04059793
vt -0.4 -0.04352321
vt -0.4 0.008312275
vt 0.4 -0.04352321
vt 0.4 0.008312275
vt 0.4 0.00536765
vt -0.4 0.00536765
vt -0.4 0.002450755
vt -0.4 0.05428619
vt 0.4 0.002450755
vt 0.4 0.05428619
vt 0.4 0.05134014
vt -0.4 0.05134014
vt -0.4 0.04841055
vt -0.4 0.100246
vt 0.4 0.04841055
vt 0.4 0.100246
vt 0.4 0.09730164
vt -0.4 0.09730164
vt -0.4 0.09434443
vt -0.4 0.1461798
vt 0.4 0.09434443
vt 0.4 0.1461798
vt 0.4 0.1432344
vt -0.4 0.1432344
vt -0.4 0.1402316
vt -0.4 0.1920669
vt 0.4 0.1402316
vt 0.4 0.1920669
vt 0.4 0.1891209
vt -0.4 0.1891209
vt -0.4 0.1860523
vt -0.4 0.2378877
vt 0.4 0.1860523
vt 0.4 0.2378877
vt 0.4 0.2349434
vt 0.4 0.1889983
vt -0.4 0.2349434
vt -0.4 0.1889983
vt -0.4 0.2317943
vt -0.4 0.2836298
vt 0.4 0.2317943
vt 0.4 0.2836298
vt 0.4 0.2806842
vt -0.4 0.2806842
vt -0.4 0.2774349
vt -0.4 0.3292703
vt 0.4 0.2774349
vt 0.4 0.3292703
vt 0.4 0.3263255
vt 0.4 0.2803805
vt -0.4 0.3263255
vt -0.4 0.2803805
vt -0.4 0.3229606
vt -0.4 0.374796
vt 0.4 0.3229606
vt 0.4 0.374796
vt 0.4 0.3718499
vt 0.4 0.3259049
vt -0.4 0.3718499
vt -0.4 0.3259049
vt -0.4 0.3683486
vt -0.4 0.4201843
vt 0.4 0.3683486
vt 0.4 0.4201843
vt 0.4 0.4172399
vt 0.4 0.3712948
vt -0.4 0.4172399
vt -0.4 0.3712948
vt -0.4 0.4135879
vt -0.4 0.4654232
vt 0.4 0.4135879
vt 0.4 0.4654232
vt 0.4 0.4624777
vt 0.4 0.4165327
vt -0.4 0.4624777
vt -0.4 0.4165327
vt -0.4 0.4586555
vt -0.4 0.5104911
vt 0.4 0.4586555
vt 0.4 0.5104911
vt 0.4 0.5075464
vt 0.4 0.4616013
vt -0.4 0.5075464
vt -0.4 0.4616013
vt -0.4 0.5035377
vt -0.4 0.5553731
vt 0.4 0.5035377
vt 0.4 0.5553731
vt 0.4 0.5524279
vt 0.4 0.506483
vt -0.4 0.5524279
vt -0.4 0.506483
vt -0.4 0.5482152
vt -0.4 0.6000507
vt 0.4 0.5482152
vt 0.4 0.6000507
vt 0.4 0.5971054
vt 0.4 0.5511603
vt -0.4 0.5971054
vt -0.4 0.5511603
vt -0.4 0.5926732
vt -0.4 0.6445085
vt 0.4 0.5926732
vt 0.4 0.6445085
vt 0.4 0.6415619
vt 0.4 0.5956169
vt -0.4 0.6415619
vt -0.4 0.5956169
vt -0.4 0.6368874
vt -0.4 0.688723
vt 0.4 0.6368874
vt 0.4 0.688723
vt 0.4 0.6857793
vt 0.4 0.6398341
vt -0.4 0.6857793
vt -0.4 0.6398341
vt -0.4 0.6808529
vt -0.4 0.7326884
vt 0.4 0.6808529
vt 0.4 0.7326884
vt 0.4 0.7297419
vt 0.4 0.6837968
vt -0.4 0.7297419
vt -0.4 0.6837968
vt -0.4 0.7245393
vt -0.4 0.7763749
vt 0.4 0.7245393
vt 0.4 0.7763749
vt 0.4 0.7734316
vt 0.4 0.7274865
vt -0.4 0.7734316
vt -0.4 0.7274865
vt -0.4 0.7679425
vt -0.4 0.819778
vt 0.4 0.7679425
vt 0.4 0.819778
vt 0.4 0.8168319
vt 0.4 0.7708869
vt -0.4 0.8168319
vt -0.4 0.7708869
vt -0.4 0.8110353
vt -0.4 0.8628706
vt 0.4 0.8110353
vt 0.4 0.8628706
vt 0.4 0.859926
vt 0.4 0.8139811
vt -0.4 0.859926
vt -0.4 0.8139811
vt 0.1616191 0.4
vt 0.461619 0.4
vt 0.1616191 -0.4
vt 0.461619 -0.4
vt -0.4926851 -0.933381
vt -0.4921763 -0.881548
vt -0.1926852 -0.933381
vt -0.1922341 -0.8874381
vt 0.4921763 -0.881548
vt 0.4926851 -0.933381
vt 0.1922341 -0.8874381
vt 0.1926852 -0.933381
vt -0.4906497 -0.829735
vt -0.1908811 -0.841513
vt 0.4906497 -0.829735
vt 0.1908811 -0.841513
vt -0.4881063 -0.777962
vt -0.1886268 -0.7956233
vt 0.4881063 -0.777962
vt 0.1886268 -0.7956233
vt -0.4845467 -0.7262489
vt -0.1854716 -0.7497867
vt 0.4845467 -0.7262489
vt 0.1854716 -0.7497867
vt -0.4799729 -0.6746157
vt -0.1814175 -0.7040209
vt 0.4799729 -0.6746157
vt 0.1814175 -0.7040209
vt -0.4743858 -0.6230822
vt -0.1764653 -0.6583434
vt 0.4743858 -0.6230822
vt 0.1764653 -0.6583434
vt -0.4677882 -0.5716684
vt -0.1706174 -0.6127721
vt 0.4677882 -0.5716684
vt 0.1706174 -0.6127721
vt -0.4601825 -0.520394
vt -0.1638759 -0.5673243
vt 0.4601825 -0.520394
vt 0.1638759 -0.5673243
vt -0.4515713 -0.4692788
vt -0.1562434 -0.5220177
vt 0.4515713 -0.4692788
vt 0.1562434 -0.5220177
vt -0.4419582 -0.4183424
vt -0.1477228 -0.4768696
vt 0.4419582 -0.4183424
vt 0.1477228 -0.4768696
vt -0.4313469 -0.3676048
vt -0.1383174 -0.4318975
vt 0.4313469 -0.3676048
vt 0.1383174 -0.4318975
vt -0.4197417 -0.3170852
vt -0.1280308 -0.3871187
vt 0.4197417 -0.3170852
vt 0.1280308 -0.3871187
vt -0.4071467 -0.2668032
vt -0.1168671 -0.3425506
vt 0.4071467 -0.2668032
vt 0.1168671 -0.3425506
vt -0.3935669 -0.2167781
vt -0.1048303 -0.2982102
vt 0.3935669 -0.2167781
vt 0.1048303 -0.2982102
vt -0.3790076 -0.1670294
vt -0.09192566 -0.2541148
vt 0.3790076 -0.1670294
vt 0.09192566 -0.2541148
vt -0.3634744 -0.117576
vt -0.07815746 -0.2102811
vt 0.3634744 -0.117576
vt 0.07815746 -0.2102811
vt -0.346973 -0.06843725
vt -0.0635312 -0.1667263
vt 0.346973 -0.06843725
vt 0.0635312 -0.1667263
vt -0.3295102 -0.0196319
vt -0.04805283 -0.123467
vt 0.3295102 -0.0196319
vt 0.04805283 -0.123467
vt -0.3110924 0.02882126
vt -0.03172807 -0.08051988
vt 0.3110924 0.02882126
vt 0.03172807 -0.08051988
vt -0.2917271 0.07690337
vt -0.01456312 -0.03790161
vt 0.2917271 0.07690337
vt 0.01456312 -0.03790161
vt -0.2714212 0.124596
vt 0.003435096 0.004371372
vt 0.2714212 0.124596
vt -0.003435096 0.004371372
vt -0.2501831 0.1718809
vt 0.02225991 0.04628292
vt 0.2501831 0.1718809
vt -0.02225991 0.04628292
vt -0.2280205 0.2187395
vt 0.04190393 0.08781675
vt 0.2280205 0.2187395
vt -0.04190393 0.08781675
vt -0.2049423 0.265154
vt 0.06235953 0.1289568
vt 0.2049423 0.265154
vt -0.06235953 0.1289568
vt -0.1809574 0.3111065
vt 0.08361908 0.1696874
vt 0.1809574 0.3111065
vt -0.08361908 0.1696874
vt -0.1560746 0.3565791
vt 0.1056742 0.2099928
vt 0.1560746 0.3565791
vt -0.1056742 0.2099928
vt -0.1303039 0.4015546
vt 0.1285164 0.2498575
vt 0.1303039 0.4015546
vt -0.1285164 0.2498575
vt -0.1036551 0.4460153
vt 0.1521369 0.2892658
vt 0.1036551 0.4460153
vt -0.1521369 0.2892658
vt -0.07613877 0.4899442
vt 0.1765265 0.3282028
vt 0.07613877 0.4899442
vt -0.1765265 0.3282028
vt -0.04776482 0.5333246
vt 0.201676 0.3666535
vt 0.04776482 0.5333246
vt -0.201676 0.3666535
vt -0.01854495 0.5761393
vt 0.2275755 0.4046029
vt 0.01854495 0.5761393
vt -0.2275755 0.4046029
vt 0.01151009 0.6183722
vt 0.2542151 0.4420367
vt -0.01151009 0.6183722
vt -0.2542151 0.4420367
vt 0.0423884 0.6600068
vt 0.2815845 0.47894
vt -0.0423884 0.6600068
vt -0.2815845 0.47894
vt 0.07407828 0.7010272
vt 0.3096733 0.515299
vt -0.07407828 0.7010272
vt -0.3096733 0.515299
vt 0.1065671 0.7414174
vt 0.3384703 0.5510994
vt -0.1065671 0.7414174
vt -0.3384703 0.5510994
vt 0.1398432 0.7811619
vt 0.367965 0.5863276
vt -0.1398432 0.7811619
vt -0.367965 0.5863276
vt 0.1738928 0.8202456
vt 0.3981454 0.6209699
vt -0.1738928 0.8202456
vt -0.3981454 0.6209699
vt 0.2087036 0.8586531
vt 0.4290002 0.655013
vt -0.2087036 0.8586531
vt -0.4290002 0.655013
vt 0.2442615 0.8963698
vt 0.4605175 0.6884437
vt -0.2442615 0.8963698
vt -0.4605175 0.6884437
vt 0.2805531 0.933381
vt 0.492685 0.721249
vt -0.2805531 0.933381
vt -0.492685 0.721249

vn -0.9999518 0.009815387 0
vn 0.9999518 -0.009817985 0
vn 0 -1 0
vn -0.9995663 0.02945078 0
vn 0.9995663 -0.02944876 0
vn -0.9987954 0.04906776 0
vn 0.9987956 -0.04906404 0
vn -0.9976394 0.06867091 0
vn 0.9976392 -0.06867396 0
vn -0.9960995 0.08823748 0
vn 0.9960995 -0.08823739 0
vn -0.9941742 0.1077852 0
vn 0.9941742 -0.107785 0
vn -0.9918671 0.1272782 0
vn 0.9918667 -0.1272811 0
vn -0.9891766 0.1467295 0
vn 0.9891766 -0.1467299 0
vn -0.9861046 0.1661256 0
vn 0.9861051 -0.1661223 0
vn -0.9826532 0.1854528 0
vn 0.9826534 -0.1854518 0
vn -0.9788224 0.2047113 0
vn 0.9788228 -0.2047092 0
vn -0.9746152 0.2238867 0
vn 0.9746149 -0.2238883 0
vn -0.9700314 0.2429793 0
vn 0.9700313 -0.2429799 0
vn -0.9650733 0.2619797 0
vn 0.9650727 -0.2619822 0
vn -0.9597443 0.2808751 0
vn 0.9597452 -0.2808718 0
vn -0.9540449 0.2996636 0
vn 0.9540441 -0.2996661 0
vn -0.9479759 0.3183423 0
vn 0.9479758 -0.3183426 0
vn -0.9415447 0.3368881 0
vn 0.9415445 -0.3368886 0
vn -0.9347475 0.3553128 0
vn 0.9347485 -0.3553101 0
vn -0.9275929 0.3735926 0
vn 0.9275912 -0.3735969 0
vn -0.9200773 0.3917369 0
vn 0.9200785 -0.3917342 0
vn -0.9122107 0.4097214 0
vn 0.9122095 -0.4097242 0
vn -0.9039881 0.4275576 0
vn 0.9039894 -0.4275548 0
vn -0.8954208 0.4452209 0
vn 0.8954213 -0.4452198 0
vn -0.8865079 0.4627135 0
vn 0.8865063 -0.4627166 0
vn -0.8772497 0.4800344 0
vn 0.8772507 -0.4800326 0
vn -0.8676578 0.497162 0
vn 0.8676579 -0.4971617 0
vn -0.857728 0.5141038 0
vn 0.8577282 -0.5141035 0
vn -0.8474712 0.5308415 0
vn 0.8474695 -0.5308442 0
vn -0.8368824 0.5473829 0
vn 0.8368838 -0.5473807 0
vn -0.8259758 0.5637056 0
vn 0.8259749 -0.5637069 0
vn -0.8147477 0.5798157 0
vn 0.8147492 -0.5798135 0
vn -0.8032075 0.5956995 0
vn 0.8032079 -0.5956988 0
vn -0.7913568 0.6113546 0
vn 0.7913558 -0.6113558 0
vn -0.779204 0.6267705 0
vn 0.7792027 -0.626772 0
vn -0.7667424 0.641955 0
vn 0.7667435 -0.6419536 0
vn -0.7539959 0.6568792 0
vn 0.7539943 -0.656881 0
vn -0.7409483 0.6715622 0
vn 0.7409514 -0.6715587 0
vn -0.7276244 0.6859757 0
vn 0.7276231 -0.6859771 0
vn -0.7140133 0.7001321 0
vn 0.7140133 -0.7001321 0
vn 0.7071068 0.7071068 0
vn 0 0 1
vn 0 0 -1

usemtl ProBuilderDefault
f 3/3/1 4/4/1 2/2/1 1/1/1
f 7/7/2 8/8/2 6/6/2 5/5/2
f 1/11/3 6/12/3 8/10/3 3/9/3
f 4/15/4 10/16/4 9/14/4 2/13/4
f 12/19/5 7/20/5 5/18/5 11/17/5
f 10/23/6 14/24/6 13/22/6 9/21/6
f 16/27/7 12/28/7 11/26/7 15/25/7
f 14/31/8 18/32/8 17/30/8 13/29/8
f 20/35/9 16/36/9 15/34/9 19/33/9
f 18/39/10 22/40/10 21/38/10 17/37/10
f 24/43/11 20/44/11 19/42/11 23/41/11
f 22/47/12 26/48/12 25/46/12 21/45/12
f 28/51/13 24/52/13 23/50/13 27/49/13
f 26/55/14 30/56/14 29/54/14 25/53/14
f 32/59/15 28/60/15 27/58/15 31/57/15
f 30/63/16 34/64/16 33/62/16 29/61/16
f 36/67/17 32/68/17 31/66/17 35/65/17
f 34/71/18 38/72/18 37/70/18 33/69/18
f 40/75/19 36/76/19 35/74/19 39/73/19
f 38/79/20 42/80/20 41/78/20 37/77/20
f 44/83/21 40/84/21 39/82/21 43/81/21
f 42/87/22 46/88/22 45/86/22 41/85/22
f 48/91/23 44/92/23 43/90/23 47/89/23
f 46/95/24 50/96/24 49/94/24 45/93/24
f 52/99/25 48/100/25 47/98/25 51/97/25
f 50/103/26 54/104/26 53/102/26 49/101/26
f 56/107/27 52/108/27 51/106/27 55/105/27
f 54/111/28 58/112/28 57/110/28 53/109/28
f 60/115/29 56/116/29 55/114/29 59/113/29
f 58/119/30 62/120/30 61/118/30 57/117/30
f 64/123/31 60/124/31 59/122/31 63/121/31
f 62/127/32 66/128/32 65/126/32 61/125/32
f 68/130/33 64/123/33 63/121/33 67/129/33
f 66/133/34 70/134/34 69/132/34 65/131/34
f 72/136/35 68/130/35 67/129/35 71/135/35
f 70/139/36 74/140/36 73/138/36 69/137/36
f 76/142/37 72/136/37 71/135/37 75/141/37
f 74/145/38 78/146/38 77/144/38 73/143/38
f 80/148/39 76/142/39 75/141/39 79/147/39
f 78/151/40 82/152/40 81/150/40 77/149/40
f 84/154/41 80/148/41 79/147/41 83/153/41
f 82/157/42 86/158/42 85/156/42 81/155/42
f 88/160/43 84/154/43 83/153/43 87/159/43
f 86/163/44 90/164/44 89/162/44 85/161/44
f 92/166/45 88/160/45 87/159/45 91/165/45
f 90/169/46 94/170/46 93/168/46 89/167/46
f 96/172/47 92/166/47 91/165/47 95/171/47
f 94/175/48 98/176/48 97/174/48 93/173/48
f 100/178/49 96/172/49 95/171/49 99/177/49
f 98/181/50 102/182/50 101/180/50 97/179/50
f 104/184/51 100/178/51 99/177/51 103/183/51
f 102/187/52 106/188/52 105/186/52 101/185/52
f 108/191/53 104/192/53 103/190/53 107/189/53
f 106/195/54 110/196/54 109/194/54 105/193/54
f 112/198/55 108/191/55 107/189/55 111/197/55
f 110/201/56 114/202/56 113/200/56 109/199/56
f 116/205/57 112/206/57 111/204/57 115/203/57
f 114/209/58 118/210/58 117/208/58 113/207/58
f 120/213/59 116/214/59 115/212/59 119/211/59
f 118/217/60 122/218/60 121/216/60 117/215/60
f 124/221/61 120/222/61 119/220/61 123/219/61
f 122/225/62 126/226/62 125/224/62 121/223/62
f 128/229/63 124/230/63 123/228/63 127/227/63
f 126/233/64 130/234/64 129/232/64 125/231/64
f 132/237/65 128/238/65 127/236/65 131/235/65
f 130/241/66 134/242/66 133/240/66 129/239/66
f 136/245/67 132/246/67 131/244/67 135/243/67
f 134/249/68 138/250/68 137/248/68 133/247/68
f 140/253/69 136/254/69 135/252/69 139/251/69
f 138/257/70 142/258/70 141/256/70 137/255/70
f 144/261/71 140/262/71 139/260/71 143/259/71
f 142/265/72 146/266/72 145/264/72 141/263/72
f 148/269/73 144/270/73 143/268/73 147/267/73
f 146/273/74 150/274/74 149/272/74 145/271/74
f 152/277/75 148/278/75 147/276/75 151/275/75
f 150/281/76 154/282/76 153/280/76 149/279/76
f 156/285/77 152/286/77 151/284/77 155/283/77
f 154/289/78 158/290/78 157/288/78 153/287/78
f 160/293/79 156/294/79 155/292/79 159/291/79
f 158/297/80 162/298/80 161/296/80 157/295/80
f 164/301/81 160/302/81 159/300/81 163/299/81
f 163/305/82 161/306/82 162/304/82 164/303/82
f 8/309/83 7/310/83 4/308/83 3/307/83
f 5/313/84 6/314/84 1/312/84 2/311/84
f 7/310/83 12/316/83 10/315/83 4/308/83
f 11/318/84 5/313/84 2/311/84 9/317/84
f 12/316/83 16/320/83 14/319/83 10/315/83
f 15/322/84 11/318/84 9/317/84 13/321/84
f 16/320/83 20/324/83 18/323/83 14/319/83
f 19/326/84 15/322/84 13/321/84 17/325/84
f 20/324/83 24/328/83 22/327/83 18/323/83
f 23/330/84 19/326/84 17/325/84 21/329/84
f 24/328/83 28/332/83 26/331/83 22/327/83
f 27/334/84 23/330/84 21/329/84 25/333/84
f 28/332/83 32/336/83 30/335/83 26/331/83
f 31/338/84 27/334/84 25/333/84 29/337/84
f 32/336/83 36/340/83 34/339/83 30/335/83
f 35/342/84 31/338/84 29/337/84 33/341/84
f 36/340/83 40/344/83 38/343/83 34/339/83
f 39/346/84 35/342/84 33/341/84 37/345/84
f 40/344/83 44/348/83 42/347/83 38/343/83
f 43/350/84 39/346/84 37/345/84 41/349/84
f 44/348/83 48/352/83 46/351/83 42/347/83
f 47/354/84 43/350/84 41/349/84 45/353/84
f 48/352/83 52/356/83 50/355/83 46/351/83
f 51/358/84 47/354/84 45/353/84 49/357/84
f 52/356/83 56/360/83 54/359/83 50/355/83
f 55/362/84 51/358/84 49/357/84 53/361/84
f 56/360/83 60/364/83 58/363/83 54/359/83
f 59/366/84 55/362/84 53/361/84 57/365/84
f 60/364/83 64/368/83 62/367/83 58/363/83
f 63/370/84 59/366/84 57/365/84 61/369/84
f 64/368/83 68/372/83 66/371/83 62/367/83
f 67/374/84 63/370/84 61/369/84 65/373/84
f 68/372/83 72/376/83 70/375/83 66/371/83
f 71/378/84 67/374/84 65/373/84 69/377/84
f 72/376/83 76/380/83 74/379/83 70/375/83
f 75/382/84 71/378/84 69/377/84 73/381/84
f 76/380/83 80/384/83 78/383/83 74/379/83
f 79/386/84 75/382/84 73/381/84 77/385/84
f 80/384/83 84/388/83 82/387/83 78/383/83
f 83/390/84 79/386/84 77/385/84 81/389/84
f 84/388/83 88/392/83 86/391/83 82/387/83
f 87/394/84 83/390/84 81/389/84 85/393/84
f 88/392/83 92/396/83 90/395/83 86/391/83
f 91/398/84 87/394/84 85/393/84 89/397/84
f 92/396/83 96/400/83 94/399/83 90/395/83
f 95/402/84 91/398/84 89/397/84 93/401/84
f 96/400/83 100/404/83 98/403/83 94/399/83
f 99/406/84 95/402/84 93/401/84 97/405/84
f 100/404/83 104/408/83 102/407/83 98/403/83
f 103/410/84 99/406/84 97/405/84 101/409/84
f 104/408/83 108/412/83 106/411/83 102/407/83
f 107/414/84 103/410/84 101/409/84 105/413/84
f 108/412/83 112/416/83 110/415/83 106/411/83
f 111/418/84 107/414/84 105/413/84 109/417/84
f 112/416/83 116/420/83 114/419/83 110/415/83
f 115/422/84 111/418/84 109/417/84 113/421/84
f 116/420/83 120/424/83 118/423/83 114/419/83
f 119/426/84 115/422/84 113/421/84 117/425/84
f 120/424/83 124/428/83 122/427/83 118/423/83
f 123/430/84 119/426/84 117/425/84 121/429/84
f 124/428/83 128/432/83 126/431/83 122/427/83
f 127/434/84 123/430/84 121/429/84 125/433/84
f 128/432/83 132/436/83 130/435/83 126/431/83
f 131/438/84 127/434/84 125/433/84 129/437/84
f 132/436/83 136/440/83 134/439/83 130/435/83
f 135/442/84 131/438/84 129/437/84 133/441/84
f 136/440/83 140/444/83 138/443/83 134/439/83
f 139/446/84 135/442/84 133/441/84 137/445/84
f 140/444/83 144/448/83 142/447/83 138/443/83
f 143/450/84 139/446/84 137/445/84 141/449/84
f 144/448/83 148/452/83 146/451/83 142/447/83
f 147/454/84 143/450/84 141/449/84 145/453/84
f 148/452/83 152/456/83 150/455/83 146/451/83
f 151/458/84 147/454/84 145/453/84 149/457/84
f 152/456/83 156/460/83 154/459/83 150/455/83
f 155/462/84 151/458/84 149/457/84 153/461/84
f 156/460/83 160/464/83 158/463/83 154/459/83
f 159/466/84 155/462/84 153/461/84 157/465/84
f 160/464/83 164/468/83 162/467/83 158/463/83
f 163/470/84 159/466/84 157/465/84 161/469/84

