# ProBuilder 4.5.2
# https://unity3d.com/unity/features/worldbuilding/probuilder
# 28.10.2022 19:55:42

mtllib ./Pipe2.mtl
o Pipe2

g Arch
v -4 0.3499999 4.172324E-08
v -3.950753 0.3499999 0.625738
v -4 -0.3500001 -4.172326E-08
v -3.950753 -0.3500002 0.625738
v -3.555678 0.3499999 0.5631642
v -3.6 0.3499999 4.172324E-08
v -3.555678 -0.3500002 0.5631641
v -3.6 -0.3500001 -4.172326E-08
v -3.804226 0.3499998 1.236068
v -3.804226 -0.3500003 1.236068
v -3.423804 0.3499998 1.112461
v -3.423804 -0.3500003 1.112461
v -3.564026 0.3499997 1.815962
v -3.564026 -0.3500004 1.815962
v -3.207623 0.3499998 1.634366
v -3.207623 -0.3500003 1.634366
v -3.236068 0.3499997 2.351141
v -3.236068 -0.3500004 2.351141
v -2.912461 0.3499997 2.116027
v -2.912461 -0.3500004 2.116027
v -2.828427 0.3499996 2.828428
v -2.828427 -0.3500005 2.828427
v -2.545584 0.3499996 2.545584
v -2.545584 -0.3500004 2.545584
v -2.351141 0.3499995 3.236068
v -2.351141 -0.3500005 3.236068
v -2.116027 0.3499996 2.912462
v -2.116027 -0.3500005 2.912461
v -1.815962 0.3499995 3.564027
v -1.815962 -0.3500006 3.564027
v -1.634366 0.3499996 3.207624
v -1.634366 -0.3500005 3.207624
v -1.236068 0.3499995 3.804227
v -1.236068 -0.3500006 3.804227
v -1.112461 0.3499995 3.423804
v -1.112461 -0.3500005 3.423804
v -0.6257379 0.3499995 3.950754
v -0.6257379 -0.3500006 3.950754
v -0.5631642 0.3499995 3.555679
v -0.5631642 -0.3500006 3.555679
v 0 0.3499995 4
v 0 -0.3500006 4
v 0 0.3499995 3.6
v 0 -0.3500006 3.6
v 0.6257377 0.3499995 3.950754
v 0.6257377 -0.3500006 3.950754
v 0.5631638 0.3499995 3.555679
v 0.5631638 -0.3500006 3.555679
v 1.236068 0.3499995 3.804227
v 1.236068 -0.3500006 3.804227
v 1.112461 0.3499995 3.423804
v 1.112461 -0.3500005 3.423804
v 1.815962 0.3499995 3.564027
v 1.815962 -0.3500006 3.564027
v 1.634366 0.3499996 3.207624
v 1.634366 -0.3500005 3.207624
v 2.351141 0.3499995 3.236068
v 2.351141 -0.3500005 3.236068
v 2.116027 0.3499996 2.912462
v 2.116027 -0.3500005 2.912461
v 2.828427 0.3499996 2.828428
v 2.828427 -0.3500005 2.828427
v 2.545584 0.3499996 2.545584
v 2.545584 -0.3500004 2.545584
v 3.236068 0.3499997 2.351141
v 3.236068 -0.3500004 2.351141
v 2.912461 0.3499997 2.116027
v 2.912461 -0.3500004 2.116027
v 3.564026 0.3499997 1.815963
v 3.564026 -0.3500004 1.815962
v 3.207623 0.3499998 1.634366
v 3.207623 -0.3500003 1.634366
v 3.804226 0.3499998 1.236068
v 3.804226 -0.3500003 1.236068
v 3.423803 0.3499998 1.112461
v 3.423803 -0.3500003 1.112461
v 3.950753 0.3499999 0.6257379
v 3.950753 -0.3500002 0.6257378
v 3.555678 0.3499999 0.5631641
v 3.555678 -0.3500002 0.563164
v 4 0.3499999 -3.079679E-07
v 4 -0.3500001 -3.914144E-07
v 3.6 0.3499999 -2.729988E-07
v 3.6 -0.3500001 -3.564453E-07
v 3.950753 0.35 -0.6257375
v 3.950753 -0.3500001 -0.6257376
v 3.555678 0.35 -0.5631637
v 3.555678 -0.3500001 -0.5631638
v 3.804226 0.3500001 -1.236068
v 3.804226 -0.35 -1.236068
v 3.423803 0.3500001 -1.112461
v 3.423803 -0.35 -1.112461
v 3.564026 0.3500002 -1.815962
v 3.564026 -0.3499999 -1.815962
v 3.207623 0.3500001 -1.634366
v 3.207623 -0.3499999 -1.634366
v 3.236068 0.3500002 -2.351141
v 3.236068 -0.3499998 -2.351141
v 2.912461 0.3500002 -2.116027
v 2.912461 -0.3499999 -2.116027
v 2.828427 0.3500003 -2.828427
v 2.828427 -0.3499998 -2.828427
v 2.545585 0.3500003 -2.545584
v 2.545585 -0.3499998 -2.545584
v 2.351142 0.3500003 -3.236068
v 2.351142 -0.3499997 -3.236068
v 2.116027 0.3500003 -2.912461
v 2.116027 -0.3499998 -2.912461
v 1.815963 0.3500004 -3.564026
v 1.815963 -0.3499997 -3.564026
v 1.634367 0.3500003 -3.207623
v 1.634367 -0.3499998 -3.207624
v 1.236068 0.3500004 -3.804226
v 1.236068 -0.3499997 -3.804226
v 1.112462 0.3500004 -3.423804
v 1.112462 -0.3499997 -3.423804
v 0.6257381 0.3500004 -3.950754
v 0.6257381 -0.3499997 -3.950754
v 0.5631642 0.3500004 -3.555678
v 0.5631642 -0.3499997 -3.555678
v 0 0.3500004 -4
v 0 -0.3499996 -4
v 0 0.3500004 -3.6
v 0 -0.3499997 -3.6
v -0.6257381 0.3500004 -3.950754
v -0.6257381 -0.3499997 -3.950754
v -0.5631642 0.3500004 -3.555678
v -0.5631642 -0.3499997 -3.555678
v -1.236068 0.3500004 -3.804226
v -1.236068 -0.3499997 -3.804226
v -1.112462 0.3500004 -3.423804
v -1.112462 -0.3499997 -3.423804
v -1.815961 0.3500004 -3.564027
v -1.815961 -0.3499997 -3.564027
v -1.634365 0.3500003 -3.207624
v -1.634365 -0.3499998 -3.207624
v -2.35114 0.3500003 -3.236069
v -2.35114 -0.3499997 -3.236069
v -2.116026 0.3500003 -2.912462
v -2.116026 -0.3499998 -2.912462
v -2.828427 0.3500003 -2.828428
v -2.828427 -0.3499998 -2.828428
v -2.545584 0.3500003 -2.545585
v -2.545584 -0.3499998 -2.545585
v -3.236068 0.3500002 -2.351141
v -3.236068 -0.3499998 -2.351141
v -2.912461 0.3500002 -2.116027
v -2.912461 -0.3499999 -2.116027
v -3.564026 0.3500002 -1.815962
v -3.564026 -0.3499999 -1.815962
v -3.207623 0.3500001 -1.634366
v -3.207623 -0.3499999 -1.634366
v -3.804226 0.3500001 -1.236068
v -3.804226 -0.35 -1.236068
v -3.423804 0.3500001 -1.112461
v -3.423804 -0.35 -1.112461
v -3.950753 0.35 -0.6257375
v -3.950753 -0.3500001 -0.6257375
v -3.555678 0.35 -0.5631637
v -3.555678 -0.3500001 -0.5631638

vt -0.35 -0.3138358
vt -0.35 0.313837
vt 0.35 -0.3138358
vt 0.35 0.313837
vt 0.35 0.282454
vt 0.35 -0.2824515
vt -0.35 0.282454
vt -0.35 -0.2824515
vt 0.3138349 -0.35
vt -0.3138378 -0.35
vt 0.3138349 0.35
vt -0.3138378 0.35
vt 0.2824546 -0.35
vt -0.2824506 -0.35
vt 0.2824546 0.35
vt -0.2824506 0.35
vt -4 3.552714E-15
vt -3.950753 0.6257379
vt -3.6 3.552714E-15
vt -3.555678 0.5631641
vt 3.950753 0.6257379
vt 4 3.552714E-15
vt 3.555678 0.5631641
vt 3.6 3.552714E-15
vt -3.804226 1.236068
vt -3.423804 1.112461
vt 3.804226 1.236068
vt 3.423804 1.112461
vt -3.564026 1.815962
vt -3.207623 1.634366
vt 3.564026 1.815962
vt 3.207623 1.634366
vt -3.236068 2.351141
vt -2.912461 2.116027
vt 3.236068 2.351141
vt 2.912461 2.116027
vt -2.828427 2.828427
vt -2.545584 2.545584
vt 2.828427 2.828427
vt 2.545584 2.545584
vt -2.351141 3.236068
vt -2.116027 2.912461
vt 2.351141 3.236068
vt 2.116027 2.912461
vt -1.815962 3.564026
vt -1.634366 3.207623
vt 1.815962 3.564026
vt 1.634366 3.207623
vt -1.236068 3.804226
vt -1.112461 3.423804
vt 1.236068 3.804226
vt 1.112461 3.423804
vt -0.6257379 3.950753
vt -0.5631642 3.555678
vt 0.6257379 3.950753
vt 0.5631642 3.555678
vt 0 4
vt 0 3.6
vt 3.950753 -0.6257375
vt 3.555678 -0.5631637
vt -3.950753 -0.6257375
vt -3.555678 -0.5631637
vt 3.804226 -1.236068
vt 3.423803 -1.112461
vt -3.804226 -1.236068
vt -3.423803 -1.112461
vt 3.564026 -1.815962
vt 3.207623 -1.634366
vt -3.564026 -1.815962
vt -3.207623 -1.634366
vt 3.236068 -2.35114
vt 2.912461 -2.116026
vt -3.236068 -2.35114
vt -2.912461 -2.116026
vt 2.828427 -2.828427
vt 2.545585 -2.545584
vt -2.828427 -2.828427
vt -2.545585 -2.545584
vt 2.351142 -3.236067
vt 2.116027 -2.912461
vt -2.351142 -3.236067
vt -2.116027 -2.912461
vt 1.815963 -3.564026
vt 1.634367 -3.207623
vt -1.815963 -3.564026
vt -1.634367 -3.207623
vt 1.236068 -3.804226
vt 1.112462 -3.423803
vt -1.236068 -3.804226
vt -1.112462 -3.423803
vt 0.6257381 -3.950753
vt 0.5631642 -3.555678
vt -0.6257381 -3.950753
vt -0.5631642 -3.555678
vt 0 -4
vt 0 -3.6

vn -0.9969174 -9.353036E-09 0.07845896
vn 0.9969174 9.353011E-09 -0.07845875
vn -0.9723699 -2.782886E-08 0.2334454
vn 0.97237 2.782886E-08 -0.2334454
vn -0.9238794 -4.561944E-08 0.3826836
vn 0.9238794 4.561945E-08 -0.3826838
vn -0.8526402 -6.228668E-08 0.5224986
vn 0.8526401 6.228669E-08 -0.5224987
vn -0.7604059 -7.742025E-08 0.6494482
vn 0.7604058 7.742027E-08 -0.6494484
vn -0.6494483 -9.064743E-08 0.7604058
vn 0.6494485 9.064741E-08 -0.7604057
vn -0.5224985 -1.016426E-07 0.8526403
vn 0.5224985 1.016426E-07 -0.8526402
vn -0.3826834 -1.10135E-07 0.9238797
vn 0.3826836 1.10135E-07 -0.9238796
vn -0.2334455 -1.159155E-07 0.97237
vn 0.2334455 1.159155E-07 -0.97237
vn -0.07845895 -1.188418E-07 0.9969175
vn 0.07845873 1.188418E-07 -0.9969175
vn 0.07845898 -1.188418E-07 0.9969175
vn -0.07845879 1.188418E-07 -0.9969175
vn 0.2334454 -1.159155E-07 0.97237
vn -0.2334453 1.159155E-07 -0.9723701
vn 0.3826832 -1.10135E-07 0.9238798
vn -0.3826834 1.10135E-07 -0.9238797
vn 0.5224987 -1.016426E-07 0.8526402
vn -0.5224989 1.016426E-07 -0.8526401
vn 0.649448 -9.064746E-08 0.7604061
vn -0.6494483 9.064743E-08 -0.7604059
vn 0.760406 -7.742023E-08 0.649448
vn -0.7604058 7.742027E-08 -0.6494484
vn 0.8526403 -6.228667E-08 0.5224985
vn -0.85264 6.228672E-08 -0.5224989
vn 0.9238796 -4.561942E-08 0.3826835
vn -0.9238796 4.561939E-08 -0.3826832
vn 0.97237 -2.782885E-08 0.2334453
vn -0.9723697 2.782894E-08 -0.2334461
vn 0.9969173 -9.353077E-09 0.07845931
vn -0.9969174 9.352958E-09 -0.07845831
vn 0 -1 -1.192093E-07
vn 0 1 1.192093E-07

usemtl Platform_1
f 3/3/1 4/4/1 2/2/1 1/1/1
f 7/7/2 8/8/2 6/6/2 5/5/2
f 4/3/3 10/4/3 9/2/3 2/1/3
f 12/7/4 7/8/4 5/6/4 11/5/4
f 10/3/5 14/4/5 13/2/5 9/1/5
f 16/7/6 12/8/6 11/6/6 15/5/6
f 14/3/7 18/4/7 17/2/7 13/1/7
f 20/7/8 16/8/8 15/6/8 19/5/8
f 18/3/9 22/4/9 21/2/9 17/1/9
f 24/7/10 20/8/10 19/6/10 23/5/10
f 22/11/11 26/12/11 25/10/11 21/9/11
f 28/15/12 24/16/12 23/14/12 27/13/12
f 26/11/13 30/12/13 29/10/13 25/9/13
f 32/15/14 28/16/14 27/14/14 31/13/14
f 30/11/15 34/12/15 33/10/15 29/9/15
f 36/15/16 32/16/16 31/14/16 35/13/16
f 34/11/17 38/12/17 37/10/17 33/9/17
f 40/15/18 36/16/18 35/14/18 39/13/18
f 38/11/19 42/12/19 41/10/19 37/9/19
f 44/15/20 40/16/20 39/14/20 43/13/20
f 42/11/21 46/12/21 45/10/21 41/9/21
f 48/15/22 44/16/22 43/14/22 47/13/22
f 46/11/23 50/12/23 49/10/23 45/9/23
f 52/15/24 48/16/24 47/14/24 51/13/24
f 50/11/25 54/12/25 53/10/25 49/9/25
f 56/15/26 52/16/26 51/14/26 55/13/26
f 54/11/27 58/12/27 57/10/27 53/9/27
f 60/15/28 56/16/28 55/14/28 59/13/28
f 58/11/29 62/12/29 61/10/29 57/9/29
f 64/15/30 60/16/30 59/14/30 63/13/30
f 62/2/31 66/1/31 65/3/31 61/4/31
f 68/6/32 64/5/32 63/7/32 67/8/32
f 66/2/33 70/1/33 69/3/33 65/4/33
f 72/6/34 68/5/34 67/7/34 71/8/34
f 70/2/35 74/1/35 73/3/35 69/4/35
f 76/6/36 72/5/36 71/7/36 75/8/36
f 74/2/37 78/1/37 77/3/37 73/4/37
f 80/6/38 76/5/38 75/7/38 79/8/38
f 78/2/39 82/1/39 81/3/39 77/4/39
f 84/6/40 80/5/40 79/7/40 83/8/40
f 82/2/2 86/1/2 85/3/2 81/4/2
f 88/6/1 84/5/1 83/7/1 87/8/1
f 86/2/4 90/1/4 89/3/4 85/4/4
f 92/6/3 88/5/3 87/7/3 91/8/3
f 90/2/6 94/1/6 93/3/6 89/4/6
f 96/6/5 92/5/5 91/7/5 95/8/5
f 94/2/8 98/1/8 97/3/8 93/4/8
f 100/6/7 96/5/7 95/7/7 99/8/7
f 98/2/10 102/1/10 101/3/10 97/4/10
f 104/6/9 100/5/9 99/7/9 103/8/9
f 102/11/12 106/12/12 105/10/12 101/9/12
f 108/15/11 104/16/11 103/14/11 107/13/11
f 106/11/14 110/12/14 109/10/14 105/9/14
f 112/15/13 108/16/13 107/14/13 111/13/13
f 110/11/16 114/12/16 113/10/16 109/9/16
f 116/15/15 112/16/15 111/14/15 115/13/15
f 114/11/18 118/12/18 117/10/18 113/9/18
f 120/15/17 116/16/17 115/14/17 119/13/17
f 118/11/20 122/12/20 121/10/20 117/9/20
f 124/15/19 120/16/19 119/14/19 123/13/19
f 122/11/22 126/12/22 125/10/22 121/9/22
f 128/15/21 124/16/21 123/14/21 127/13/21
f 126/11/24 130/12/24 129/10/24 125/9/24
f 132/15/23 128/16/23 127/14/23 131/13/23
f 130/11/26 134/12/26 133/10/26 129/9/26
f 136/15/25 132/16/25 131/14/25 135/13/25
f 134/11/28 138/12/28 137/10/28 133/9/28
f 140/15/27 136/16/27 135/14/27 139/13/27
f 138/11/30 142/12/30 141/10/30 137/9/30
f 144/15/29 140/16/29 139/14/29 143/13/29
f 142/3/32 146/4/32 145/2/32 141/1/32
f 148/7/31 144/8/31 143/6/31 147/5/31
f 146/3/34 150/4/34 149/2/34 145/1/34
f 152/7/33 148/8/33 147/6/33 151/5/33
f 150/3/36 154/4/36 153/2/36 149/1/36
f 156/7/35 152/8/35 151/6/35 155/5/35
f 154/3/38 158/4/38 157/2/38 153/1/38
f 160/7/37 156/8/37 155/6/37 159/5/37
f 158/3/40 3/4/40 1/2/40 157/1/40
f 8/7/39 160/8/39 159/6/39 6/5/39
f 8/19/41 7/20/41 4/18/41 3/17/41
f 5/23/42 6/24/42 1/22/42 2/21/42
f 7/20/41 12/26/41 10/25/41 4/18/41
f 11/28/42 5/23/42 2/21/42 9/27/42
f 12/26/41 16/30/41 14/29/41 10/25/41
f 15/32/42 11/28/42 9/27/42 13/31/42
f 16/30/41 20/34/41 18/33/41 14/29/41
f 19/36/42 15/32/42 13/31/42 17/35/42
f 20/34/41 24/38/41 22/37/41 18/33/41
f 23/40/42 19/36/42 17/35/42 21/39/42
f 24/38/41 28/42/41 26/41/41 22/37/41
f 27/44/42 23/40/42 21/39/42 25/43/42
f 28/42/41 32/46/41 30/45/41 26/41/41
f 31/48/42 27/44/42 25/43/42 29/47/42
f 32/46/41 36/50/41 34/49/41 30/45/41
f 35/52/42 31/48/42 29/47/42 33/51/42
f 36/50/41 40/54/41 38/53/41 34/49/41
f 39/56/42 35/52/42 33/51/42 37/55/42
f 40/54/41 44/58/41 42/57/41 38/53/41
f 43/58/42 39/56/42 37/55/42 41/57/42
f 44/58/41 48/56/41 46/55/41 42/57/41
f 47/54/42 43/58/42 41/57/42 45/53/42
f 48/56/41 52/52/41 50/51/41 46/55/41
f 51/50/42 47/54/42 45/53/42 49/49/42
f 52/52/41 56/48/41 54/47/41 50/51/41
f 55/46/42 51/50/42 49/49/42 53/45/42
f 56/48/41 60/44/41 58/43/41 54/47/41
f 59/42/42 55/46/42 53/45/42 57/41/42
f 60/44/41 64/40/41 62/39/41 58/43/41
f 63/38/42 59/42/42 57/41/42 61/37/42
f 64/40/41 68/36/41 66/35/41 62/39/41
f 67/34/42 63/38/42 61/37/42 65/33/42
f 68/36/41 72/32/41 70/31/41 66/35/41
f 71/30/42 67/34/42 65/33/42 69/29/42
f 72/32/41 76/28/41 74/27/41 70/31/41
f 75/26/42 71/30/42 69/29/42 73/25/42
f 76/28/41 80/23/41 78/21/41 74/27/41
f 79/20/42 75/26/42 73/25/42 77/18/42
f 80/23/41 84/24/41 82/22/41 78/21/41
f 83/19/42 79/20/42 77/18/42 81/17/42
f 84/24/41 88/60/41 86/59/41 82/22/41
f 87/62/42 83/19/42 81/17/42 85/61/42
f 88/60/41 92/64/41 90/63/41 86/59/41
f 91/66/42 87/62/42 85/61/42 89/65/42
f 92/64/41 96/68/41 94/67/41 90/63/41
f 95/70/42 91/66/42 89/65/42 93/69/42
f 96/68/41 100/72/41 98/71/41 94/67/41
f 99/74/42 95/70/42 93/69/42 97/73/42
f 100/72/41 104/76/41 102/75/41 98/71/41
f 103/78/42 99/74/42 97/73/42 101/77/42
f 104/76/41 108/80/41 106/79/41 102/75/41
f 107/82/42 103/78/42 101/77/42 105/81/42
f 108/80/41 112/84/41 110/83/41 106/79/41
f 111/86/42 107/82/42 105/81/42 109/85/42
f 112/84/41 116/88/41 114/87/41 110/83/41
f 115/90/42 111/86/42 109/85/42 113/89/42
f 116/88/41 120/92/41 118/91/41 114/87/41
f 119/94/42 115/90/42 113/89/42 117/93/42
f 120/92/41 124/96/41 122/95/41 118/91/41
f 123/96/42 119/94/42 117/93/42 121/95/42
f 124/96/41 128/94/41 126/93/41 122/95/41
f 127/92/42 123/96/42 121/95/42 125/91/42
f 128/94/41 132/90/41 130/89/41 126/93/41
f 131/88/42 127/92/42 125/91/42 129/87/42
f 132/90/41 136/86/41 134/85/41 130/89/41
f 135/84/42 131/88/42 129/87/42 133/83/42
f 136/86/41 140/82/41 138/81/41 134/85/41
f 139/80/42 135/84/42 133/83/42 137/79/42
f 140/82/41 144/78/41 142/77/41 138/81/41
f 143/76/42 139/80/42 137/79/42 141/75/42
f 144/78/41 148/74/41 146/73/41 142/77/41
f 147/72/42 143/76/42 141/75/42 145/71/42
f 148/74/41 152/70/41 150/69/41 146/73/41
f 151/68/42 147/72/42 145/71/42 149/67/42
f 152/70/41 156/66/41 154/65/41 150/69/41
f 155/64/42 151/68/42 149/67/42 153/63/42
f 156/66/41 160/62/41 158/61/41 154/65/41
f 159/60/42 155/64/42 153/63/42 157/59/42
f 160/62/41 8/19/41 3/17/41 158/61/41
f 6/24/42 159/60/42 157/59/42 1/22/42

